# xmcd CD database file
#
# Track frame offsets:
#	150
#	14111
#	27526
#	40813
#	55932
#	68881
#	82808
#	95335
#	108988
#	124497
#	139593
#	157425
#
# Disc length: 2276 seconds
#
# Revision: 0
# Processed by: cddbd v1.5.2PL0 Copyright (c) Steve Scherf et al.
# Submitted via: ACXtractor (MTCDDB.DLL V2003.07.15)
#
DISCID=a908e20c
DTITLE=Ian Quin - Following the Footsteps
DYEAR=2005
DGENRE=Country
TTITLE0=I'm Sailing On Gypsey Time
TTITLE1=How Legends Live
TTITLE2=Following The Footsteps
TTITLE3=Beldale
TTITLE4=Laying Down My Cards
TTITLE5=King Charlie
TTITLE6=Some Things Never Change Out Here
TTITLE7=The Strength In Us All
TTITLE8=As The Bush Becomes The Town
TTITLE9=Barbara Lee
TTITLE10=Barramundi Bound
TTITLE11=Something Of A Privilege
EXTD=ID3G:   2 YEAR: 2005
EXTT0=
EXTT1=
EXTT2=
EXTT3=
EXTT4=
EXTT5=
EXTT6=
EXTT7=
EXTT8=
EXTT9=
EXTT10=
EXTT11=
PLAYORDER=
